<svg version="1.1" id="Layer_1" xmlns="http://www.w3.org/2000/svg" xmlns:xlink="http://www.w3.org/1999/xlink" x="0px" y="0px"
	 width="100%" viewBox="0 0 1024 1024" enable-background="new 0 0 1024 1024" xml:space="preserve">
<path fill="#000000" opacity="1.000000" stroke="none" 
	d="
M783.223389,863.515015 
	C778.047729,865.782959 772.901184,865.571899 768.091309,864.552246 
	C751.283020,860.989197 734.557434,864.713440 717.803101,864.557068 
	C716.811890,864.547791 715.813354,864.905212 714.826904,864.867310 
	C697.156494,864.188843 679.538757,867.074097 661.903259,866.007080 
	C645.645203,865.023438 629.405212,863.405884 613.237610,861.414490 
	C605.843872,860.503723 599.079102,863.218201 591.948120,863.359985 
	C590.790771,863.382935 589.597412,863.948730 588.490173,863.787231 
	C569.105896,860.960327 550.105164,866.405640 530.764832,866.354919 
	C504.138824,866.285034 477.504791,865.457764 450.873535,866.032959 
	C447.521851,866.105408 444.157196,866.147705 440.974915,867.149414 
	C432.042023,869.961487 422.993774,870.408813 413.818634,868.861084 
	C408.192841,867.912170 402.531464,868.033997 396.868317,868.047668 
	C371.550323,868.108765 346.215973,867.769836 320.987610,865.840759 
	C305.347046,864.644775 289.756744,863.382690 274.103271,864.241455 
	C265.108643,864.734802 256.149017,865.101379 247.149033,864.683960 
	C234.413269,864.093201 223.747818,857.470520 212.628372,852.488892 
	C204.972717,849.059204 197.560410,845.749695 189.106674,844.720581 
	C179.833878,843.591675 170.675110,841.680847 162.947403,835.719727 
	C160.411377,833.763428 157.138031,833.276550 154.173111,832.185486 
	C135.552155,825.333252 124.387863,811.250793 117.063683,793.579773 
	C115.360039,789.469421 115.738678,785.064880 116.841705,780.780762 
	C117.764381,777.197083 118.419983,773.552856 117.624123,769.901550 
	C114.328674,754.782471 110.947342,739.681885 107.523338,724.591370 
	C107.198112,723.158020 106.613152,721.637024 105.711563,720.504883 
	C99.911186,713.221375 99.316948,704.444763 99.189819,695.837708 
	C99.010139,683.672485 98.694817,671.530151 97.906967,659.390320 
	C97.142036,647.603699 100.275955,637.119080 107.911537,627.824036 
	C111.572235,623.367798 115.834961,620.738953 121.325417,620.070984 
	C131.094833,618.882324 140.315155,615.378662 150.019852,613.711365 
	C161.724518,611.700500 165.703552,604.028687 162.719391,592.682434 
	C161.281754,587.216309 161.689911,582.144226 165.060669,577.444824 
	C166.224136,575.822754 167.187698,574.058899 168.296860,572.395996 
	C171.498093,567.596619 171.859909,562.701721 168.384903,557.967712 
	C163.471008,551.273438 164.805313,545.637146 169.241943,538.868164 
	C174.673798,530.580750 178.482147,521.209961 182.781372,512.206787 
	C185.382263,506.760101 189.173019,502.490082 194.186920,499.276123 
	C200.718552,495.089325 204.240463,487.754608 210.919189,483.646057 
	C215.288773,480.957977 219.795135,478.471832 223.691544,474.945618 
	C233.495483,466.073242 240.179291,454.537567 249.586548,445.300934 
	C253.941467,441.025024 253.835220,435.254761 253.086548,428.976074 
	C251.362030,414.513550 242.165237,403.942413 235.633194,391.995087 
	C233.016129,387.208374 232.039795,383.233368 233.863586,377.532318 
	C238.254532,363.806488 247.855209,354.919342 258.785858,346.757660 
	C277.324921,332.914917 295.349426,318.480408 310.593079,300.893341 
	C315.183319,295.597443 321.369263,292.568268 327.701172,289.935059 
	C333.082001,287.697357 338.643768,285.888885 343.992676,283.582520 
	C347.182220,282.207245 350.796112,280.866974 353.048889,278.429352 
	C364.064911,266.509583 379.298737,264.784485 393.667328,261.014648 
	C399.612152,259.454926 405.758087,258.667542 411.804779,257.488922 
	C422.208893,255.460953 431.432983,250.222855 441.068634,246.228012 
	C447.427856,243.591553 453.913086,241.023163 459.959259,237.355255 
	C465.146393,234.208496 471.699371,236.201691 477.649689,236.341415 
	C486.839417,236.557220 495.832001,238.320755 504.739594,240.433884 
	C515.824280,243.063446 526.584961,241.800888 537.163208,238.075455 
	C557.139282,231.040283 577.530884,226.569061 598.872681,228.083298 
	C620.202332,229.596664 641.266968,232.820114 661.628845,239.487061 
	C668.570984,241.760056 674.851196,245.843750 680.834290,250.050659 
	C686.374817,253.946411 692.364746,256.592957 698.695740,258.792480 
	C721.121155,266.583588 738.975037,280.495392 752.563354,299.859039 
	C756.190430,305.027557 758.805908,310.928894 762.604553,315.949921 
	C775.536194,333.042908 789.734375,349.153168 802.136597,366.665771 
	C807.236267,373.866821 812.537720,380.911499 816.953491,388.596100 
	C822.494080,398.238129 822.093201,408.060699 818.335754,417.971771 
	C816.333252,423.253906 813.971252,428.452148 811.242554,433.396301 
	C804.162659,446.224823 807.633545,456.935760 816.145386,467.842651 
	C826.305115,480.861115 837.551758,492.907898 848.042358,505.618469 
	C862.435120,523.057007 870.785095,542.873718 871.830444,565.352783 
	C872.568237,581.217468 876.421265,596.547119 878.257324,612.202820 
	C878.965881,618.243835 881.944885,623.604858 885.006409,628.771179 
	C886.972778,632.089600 888.769287,635.459045 889.983398,639.098877 
	C892.210449,645.775330 896.224365,650.622314 901.913330,655.094543 
	C908.066772,659.931763 912.626892,666.822388 917.744629,672.932434 
	C919.059753,674.502502 918.936096,676.688599 918.987549,678.702881 
	C919.197021,686.906250 918.857239,695.028992 915.882080,702.828247 
	C914.902710,705.395874 914.877625,708.017822 915.717957,710.671814 
	C916.874451,714.324036 917.793884,718.055908 919.058044,721.668579 
	C926.493530,742.916870 921.195374,762.333801 910.102600,780.631958 
	C905.591797,788.072693 898.402527,793.264465 891.569031,798.589355 
	C881.660461,806.310364 872.996338,815.481995 862.914551,823.037415 
	C859.816956,825.358826 857.928711,829.234436 855.235535,832.167664 
	C849.547302,838.362793 842.188538,840.794312 834.003174,842.106079 
	C817.077271,844.818542 801.177979,850.401123 787.419006,861.080505 
	C786.253601,861.985046 784.871521,862.610413 783.223389,863.515015 
M635.441833,523.862915 
	C643.683105,519.863770 651.953186,515.922607 660.156616,511.847290 
	C666.793823,508.550018 672.418884,503.903656 677.576416,498.599304 
	C685.512390,490.437378 689.622498,475.447388 682.127014,464.423096 
	C680.724670,462.360504 679.635010,460.086121 678.243774,458.015106 
	C657.165955,426.636261 632.183472,398.972504 601.491455,376.613525 
	C594.615967,371.604767 587.463379,367.814728 579.085144,366.328278 
	C566.326599,364.064728 553.535156,361.951385 540.843201,359.356293 
	C524.332581,355.980408 507.608856,356.465973 491.200592,358.262665 
	C472.208008,360.342346 455.716705,370.389496 439.232361,379.435455 
	C420.260864,389.846375 404.882690,404.602051 391.803711,421.677612 
	C376.187531,442.065674 356.290314,459.331116 346.426727,483.980347 
	C345.205475,487.032227 345.068237,488.970428 346.784210,491.644287 
	C351.426086,498.877167 357.681305,504.223999 365.279999,507.993988 
	C375.871155,513.248596 386.615173,518.195496 397.199219,523.464111 
	C415.118134,532.383789 434.072296,536.721985 454.048523,536.671570 
	C467.394470,536.637878 480.630615,538.049561 493.886047,539.360535 
	C505.982483,540.556946 518.153198,541.819397 530.270020,540.261047 
	C550.250854,537.691345 570.271973,535.738770 590.387756,534.713989 
	C605.821960,533.927734 620.791382,531.169861 635.441833,523.862915 
M553.815002,665.766907 
	C536.508057,653.193420 519.191895,640.632751 501.902313,628.035461 
	C498.587799,625.620483 495.149048,624.183289 490.852234,624.296448 
	C481.027710,624.555115 471.189209,624.513733 461.361786,624.320862 
	C457.349243,624.242188 455.151337,625.002502 455.233368,629.737854 
	C455.309357,634.127197 456.188416,636.822205 461.247314,636.686157 
	C467.241455,636.524902 473.245392,636.753235 479.241669,636.636719 
	C482.230042,636.578613 483.381744,637.736450 483.370300,640.743225 
	C483.297363,659.905640 483.297943,679.068481 483.370422,698.230896 
	C483.381683,701.210144 482.289459,702.423218 479.274841,702.371277 
	C472.778351,702.259216 466.273865,702.505371 459.781189,702.314514 
	C455.144348,702.178223 455.364075,705.105469 455.316406,708.266602 
	C455.268768,711.428650 455.528107,713.724182 459.739655,713.698364 
	C480.567810,713.570740 501.397766,713.580505 522.225830,713.723145 
	C526.390381,713.751648 526.785461,711.544922 526.682617,708.331665 
	C526.584961,705.278687 527.126953,702.171509 522.352844,702.328186 
	C516.027832,702.535828 509.681274,702.159485 503.361816,702.438354 
	C499.059875,702.628113 497.502777,701.243164 497.565430,696.778564 
	C497.789917,680.784973 497.638916,664.786377 497.681396,648.789795 
	C497.685089,647.390503 497.192841,645.787537 498.507202,644.691040 
	C500.525482,644.295471 501.725128,645.634216 503.036194,646.574646 
	C519.075012,658.080200 535.078247,669.635254 551.120239,681.136353 
	C565.956604,691.772949 580.853088,702.325867 595.660339,713.002625 
	C598.065552,714.737061 600.637390,715.312378 603.147522,714.200134 
	C605.644043,713.093933 604.613342,710.367981 604.619385,708.337891 
	C604.685608,686.176025 604.729614,664.013489 604.598511,641.852234 
	C604.575867,638.036377 605.661743,636.420410 609.687561,636.602722 
	C615.507568,636.866333 621.362671,636.416138 627.176331,636.741821 
	C631.798645,637.000671 632.848450,634.960754 632.741638,630.816833 
	C632.641541,626.930725 632.616577,624.183899 627.303772,624.255920 
	C607.811401,624.520142 588.312622,624.444397 568.817932,624.292419 
	C564.750549,624.260742 563.191101,625.503479 563.243103,629.719177 
	C563.295288,633.952576 563.754639,636.909424 569.051392,636.700806 
	C575.040527,636.464966 581.056580,636.873047 587.042053,636.595642 
	C591.287109,636.398865 592.445557,638.107300 592.400208,642.125977 
	C592.227356,657.454163 592.345947,672.785522 592.294922,688.115479 
	C592.290344,689.499268 592.833313,691.125977 590.945312,692.557495 
	C578.792847,683.824951 566.568848,675.041077 553.815002,665.766907 
M346.479126,687.940613 
	C349.571777,679.794617 351.046844,671.581421 349.806732,662.712952 
	C348.421021,652.802917 344.280396,644.632507 336.687286,638.422302 
	C323.386841,627.544067 307.134491,624.666504 290.855438,624.727173 
	C263.229340,624.830200 235.599335,624.491699 207.972336,624.815613 
	C204.486130,624.856506 202.147202,625.101135 202.246796,629.466553 
	C202.337296,633.432861 202.255951,636.884033 207.803909,636.689941 
	C214.123840,636.468811 220.461548,636.782898 226.784409,636.607605 
	C230.272003,636.510925 231.411682,637.867249 231.391541,641.289917 
	C231.280731,660.106750 231.281860,678.924988 231.390579,697.741882 
	C231.410324,701.160828 230.279282,702.519104 226.780212,702.421509 
	C220.290939,702.240540 213.789886,702.499573 207.299164,702.346375 
	C203.254471,702.250793 202.170746,704.195007 202.231186,707.885010 
	C202.287430,711.317810 202.738541,713.736084 207.031967,713.657227 
	C239.797226,713.055969 272.631653,715.353638 305.318451,712.439697 
	C322.166168,710.937805 337.202271,704.538391 346.479126,687.940613 
M669.912842,707.549927 
	C686.165894,714.172668 702.837158,716.801636 720.488464,714.861267 
	C737.836121,712.954163 753.769470,707.689453 768.625610,698.752747 
	C770.841614,697.419678 772.716492,696.050232 772.672119,693.025574 
	C772.566956,685.863403 772.574707,678.697876 772.669922,671.535461 
	C772.709778,668.538757 771.425537,667.359009 768.484436,667.364380 
	C750.158875,667.397766 731.833191,667.354248 713.507507,667.356079 
	C712.017029,667.356201 710.500183,667.336304 709.655884,669.021057 
	C707.190430,673.940735 709.944763,678.651672 715.344360,678.655945 
	C728.338989,678.666260 741.333862,678.633850 754.328125,678.701660 
	C756.019714,678.710510 758.079407,678.067322 759.088745,680.366638 
	C760.871277,684.427429 759.028748,690.768066 754.985535,692.816406 
	C731.161621,704.886108 706.381653,708.216309 680.923584,699.069946 
	C669.547180,694.982727 660.519409,687.369568 658.791321,674.385437 
	C656.884583,660.059326 662.475342,649.163147 675.442627,642.311768 
	C694.331848,632.331360 714.026062,632.504578 733.955750,638.096924 
	C744.541321,641.067200 753.713867,646.844421 761.110657,655.036377 
	C764.049805,658.291565 767.238831,656.926331 770.254700,656.291016 
	C773.264587,655.657043 772.615845,652.678955 772.630859,650.421509 
	C772.677429,643.424683 772.516235,636.424377 772.681274,629.431152 
	C772.821838,623.472351 768.669250,624.606995 765.096863,624.380310 
	C761.317505,624.140503 759.112915,625.001221 759.248047,629.512817 
	C759.356506,633.131531 760.224365,636.972900 758.313354,640.791565 
	C756.415161,639.368835 754.866943,638.147644 753.258118,637.012024 
	C738.258179,626.424194 721.455627,622.735535 703.298218,623.276306 
	C686.709534,623.770447 671.671753,628.045410 658.357727,638.278564 
	C642.643066,650.356873 638.651550,674.208679 649.695312,690.619446 
	C654.698120,698.053589 661.721313,702.869446 669.912842,707.549927 
M528.757812,554.938232 
	C520.277954,554.182983 511.812653,554.272400 503.310974,554.841675 
	C491.334106,555.643555 479.372803,555.427368 467.427887,553.779053 
	C446.270538,550.859558 425.672211,545.261963 405.230774,539.544250 
	C380.125427,532.521912 355.027069,524.491150 337.277802,503.247345 
	C337.200897,503.155334 336.963654,503.197266 336.652313,503.157715 
	C334.035461,504.905365 333.777618,507.215302 335.124359,509.990845 
	C337.638062,515.171387 341.076691,519.720825 345.500000,523.296692 
	C359.959198,534.985413 375.976898,544.162231 393.009491,551.514648 
	C398.956909,554.081970 405.313843,555.580750 411.722473,556.739807 
	C431.233185,560.268494 451.073883,560.932861 470.687592,563.602295 
	C483.705566,565.373962 496.790405,567.177002 509.969055,566.463684 
	C535.392151,565.087708 560.740479,562.324280 586.257080,562.716492 
	C595.487122,562.858459 604.422668,560.985107 613.166565,557.992615 
	C639.037537,549.138977 663.117065,536.895325 685.191833,520.693665 
	C693.717712,514.436157 699.729004,506.635040 702.156311,496.234497 
	C703.397583,490.916107 701.899292,487.239960 697.558289,485.174042 
	C697.300232,485.374603 696.953796,485.524078 696.802307,485.786224 
	C696.472351,486.357269 696.191467,486.968506 695.977966,487.593201 
	C688.886841,508.337311 673.873779,520.706482 653.648682,527.465637 
	C640.389099,531.896912 627.022827,536.010620 613.783386,540.499695 
	C586.508606,549.747681 558.903625,556.930664 528.757812,554.938232 
M516.356323,589.649841 
	C523.788025,590.255615 531.210632,591.051514 538.654236,591.410400 
	C545.282410,591.729980 551.906494,591.818665 558.572632,591.133118 
	C568.422119,590.120117 577.651489,586.831604 587.042419,584.163696 
	C593.245056,582.401550 599.058411,582.160950 604.888977,585.264709 
	C608.249146,587.053345 611.961182,587.009033 615.617981,586.335815 
	C620.185974,585.494995 624.749329,584.869629 629.404602,584.543457 
	C637.966248,583.943420 645.344360,580.546875 649.447571,572.614441 
	C651.131531,569.359009 653.165100,568.040833 656.552307,567.508301 
	C666.930664,565.876587 676.955566,562.621277 686.622620,558.778137 
	C697.573303,554.424683 704.516541,545.404602 709.797546,535.014954 
	C720.153076,514.641968 721.384216,494.518036 709.216125,474.331665 
	C702.522339,463.226898 693.746704,453.953369 684.537415,445.033966 
	C681.747314,442.331635 679.922791,438.570953 676.182739,436.766541 
	C674.578918,438.766052 675.946045,440.155304 676.725891,441.473572 
	C680.962463,448.635223 685.715210,455.529694 689.439026,462.943695 
	C692.190308,468.421539 696.024780,472.381348 701.087036,475.431549 
	C706.969971,478.976196 709.458801,484.459961 709.249756,490.994904 
	C708.746887,506.717041 702.832458,520.005798 690.896240,530.543335 
	C679.336426,540.748474 666.994629,549.709412 652.674866,555.670593 
	C649.514893,556.986084 648.397766,559.079163 648.180115,562.553955 
	C647.681335,570.519531 641.932312,577.132324 634.348938,579.071045 
	C627.423828,580.841492 620.520508,582.130249 613.191406,581.622620 
	C607.867188,581.253845 604.552185,579.580627 603.492310,574.367126 
	C602.769226,570.810547 600.820923,569.825928 597.421753,570.512695 
	C586.825623,572.653564 576.159668,574.468750 565.606262,576.797241 
	C549.308533,580.393250 532.965515,583.918396 516.186340,582.049072 
	C501.608826,580.425049 487.100037,578.906860 472.383240,579.634583 
	C465.769714,579.961609 459.063995,579.381470 452.456848,578.679138 
	C438.978760,577.246399 426.200653,572.799377 413.246735,569.105408 
	C410.665344,568.369385 406.670319,565.231079 405.393829,568.766541 
	C404.146851,572.220276 409.125519,573.328979 411.772766,574.341187 
	C419.515900,577.301758 427.675659,579.111755 435.233612,582.656067 
	C438.991821,584.418518 442.860657,585.854248 446.959045,586.741333 
	C458.236511,589.182312 469.814545,587.872498 481.134796,589.641785 
	C486.067200,590.412659 491.095917,591.365540 495.988678,590.489746 
	C502.467438,589.329956 508.923553,589.879944 516.356323,589.649841 
M410.661346,675.500061 
	C410.659821,664.167175 410.769196,652.832581 410.593414,641.502380 
	C410.536011,637.799622 411.841492,636.480164 415.510559,636.612000 
	C421.335938,636.821167 427.183075,636.464966 433.005005,636.717102 
	C437.482910,636.911072 438.680878,634.948914 438.764557,630.764038 
	C438.848755,626.552979 438.080017,624.306152 433.203125,624.388184 
	C420.540802,624.601318 407.872314,624.430542 395.206268,624.440430 
	C388.041046,624.445984 380.875671,624.481262 373.710815,624.549561 
	C368.925293,624.595215 368.256042,627.606506 368.254181,631.625061 
	C368.252197,635.858521 370.602722,636.651550 373.999390,636.647339 
	C379.999084,636.640015 386.001526,636.773621 391.997406,636.627380 
	C395.230927,636.548584 396.379242,637.801575 396.364624,641.015625 
	C396.278107,660.014404 396.285187,679.013977 396.377411,698.012695 
	C396.392944,701.212219 395.268066,702.484619 392.014832,702.404297 
	C385.685760,702.247986 379.342896,702.548828 373.019226,702.307373 
	C368.622375,702.139526 368.217407,704.555115 368.248169,707.980530 
	C368.278229,711.330505 368.521118,713.736450 372.972534,713.704468 
	C393.303864,713.558105 413.637756,713.564697 433.968811,713.738708 
	C438.388428,713.776489 438.723938,711.497620 438.711914,708.081726 
	C438.700104,704.725769 438.516510,702.165649 434.048950,702.327209 
	C427.891052,702.549744 421.714417,702.226685 415.553467,702.403564 
	C411.925964,702.507690 410.485687,701.222168 410.596588,697.497437 
	C410.804871,690.503906 410.659363,683.499817 410.661346,675.500061 
M800.775085,628.203186 
	C802.645508,641.441162 805.355225,654.543762 806.554626,667.901184 
	C807.046204,673.375793 807.177429,678.820984 807.394592,684.285156 
	C807.501892,686.986084 808.684998,688.698547 811.680054,688.606567 
	C814.559448,688.518127 814.535828,686.491028 814.670166,684.403931 
	C814.924927,680.447510 815.408936,676.505127 815.630310,672.547485 
	C816.082886,664.454224 817.176208,656.440063 818.209900,648.408264 
	C819.180115,640.869263 821.710999,633.550842 821.592102,625.886169 
	C821.520447,621.263977 819.880798,617.545593 814.659241,616.353577 
	C806.137756,614.408264 801.413818,618.023865 800.775085,628.203186 
M365.020935,316.953461 
	C363.100494,317.405121 361.199890,317.722687 359.316589,318.537170 
	C347.593323,323.607208 340.051788,332.864380 333.817200,343.484955 
	C332.664154,345.449219 330.908783,347.520508 333.186737,349.747375 
	C335.562164,352.069550 338.295197,351.753296 341.003204,350.268738 
	C342.844269,349.259399 343.555664,347.285004 344.788513,345.752502 
	C351.667694,337.201477 359.812958,330.404907 371.383698,330.521027 
	C376.516907,330.572540 378.464111,327.550110 379.221710,324.115479 
	C380.111847,320.079895 376.584442,318.016937 373.095276,316.832733 
	C370.700745,316.020081 368.196991,316.300415 365.020935,316.953461 
M352.024506,547.592224 
	C351.850189,546.970459 351.881042,546.085266 351.471161,545.765869 
	C344.009888,539.953186 336.175598,534.606323 329.953552,527.312866 
	C328.421326,525.516785 327.154663,526.669678 326.311584,528.589844 
	C324.156433,533.498230 326.220856,538.008911 327.383362,542.627075 
	C329.034637,549.186829 333.300934,553.319092 339.607666,555.203918 
	C347.807159,557.654419 350.007629,556.292419 352.024506,547.592224 
M799.513000,709.671448 
	C804.446045,716.447815 814.306335,717.757263 820.485962,712.359436 
	C823.557922,709.676086 824.727966,706.470459 822.348877,702.664490 
	C819.585510,698.243408 812.873657,696.512451 806.250427,698.509949 
	C800.669434,700.193176 799.356812,702.186584 799.513000,709.671448 
M903.512878,704.339050 
	C902.870056,703.183838 902.267395,702.003967 901.576965,700.877930 
	C899.403198,697.332764 897.020813,696.761047 893.494263,699.555176 
	C887.648560,704.186584 886.318481,707.532288 888.300781,715.119995 
	C888.910828,717.455078 889.669250,719.630066 892.559265,719.932617 
	C895.306396,720.220276 898.196960,720.163818 899.685669,717.547913 
	C901.861877,713.724060 904.605042,709.954102 903.512878,704.339050 
M629.563110,565.710876 
	C632.303040,564.418213 636.241882,565.914673 638.614746,561.475708 
	C633.574646,562.102966 629.699585,563.623657 624.520264,565.848633 
	C626.936707,565.848633 627.893372,565.848633 629.563110,565.710876 
z"/>
<path fill="#000000" opacity="1.000000" stroke="none" 
	d="
M303.307251,637.346558 
	C314.173096,638.932373 324.065948,641.687134 330.467377,650.929199 
	C343.907501,670.333435 332.916443,695.516663 309.175690,700.401306 
	C297.321106,702.840332 285.372467,702.353577 273.422119,702.389038 
	C265.760498,702.411804 258.097351,702.298279 250.437668,702.419922 
	C247.206345,702.471191 245.580429,701.621399 245.604568,697.961243 
	C245.729828,678.974304 245.669067,659.986145 245.654144,640.998413 
	C245.652298,638.659546 245.846375,636.604004 248.976028,636.642883 
	C266.942078,636.866089 284.920349,635.949829 303.307251,637.346558 
z"/>
</svg>